<svg width="48" height="48" viewBox="0 0 48 48" fill="none" xmlns="http://www.w3.org/2000/svg">
<rect width="48" height="48" rx="5" fill="#2B2B2B"/>
<path d="M9.668 32H16.784C18.752 32 20.312 31.508 21.464 30.524C22.616 29.54 23.192 28.18 23.192 26.444C23.192 25.076 22.82 23.972 22.076 23.132C21.34 22.292 20.28 21.76 18.896 21.536C20.592 20.688 21.44 19.236 21.44 17.18C21.44 15.524 20.9 14.28 19.82 13.448C18.748 12.616 17.256 12.2 15.344 12.2H9.668V32ZM13.544 20.216V15.212H14.444C16.612 15.212 17.696 16.036 17.696 17.684C17.696 18.508 17.416 19.136 16.856 19.568C16.296 20 15.492 20.216 14.444 20.216H13.544ZM13.544 28.976V23.564H15.464C16.648 23.564 17.552 23.804 18.176 24.284C18.808 24.764 19.124 25.444 19.124 26.324C19.124 28.092 17.904 28.976 15.464 28.976H13.544ZM32.1826 32.384C33.5426 32.384 34.7666 32.108 35.8546 31.556C36.9426 30.996 37.8026 30.228 38.4346 29.252C39.0746 28.268 39.3946 27.136 39.3946 25.856C39.3946 24.576 39.0746 23.448 38.4346 22.472C37.8026 21.488 36.9426 20.72 35.8546 20.168C34.7666 19.608 33.5426 19.328 32.1826 19.328C30.8306 19.328 29.6066 19.608 28.5106 20.168C27.4226 20.72 26.5586 21.488 25.9186 22.472C25.2866 23.448 24.9706 24.576 24.9706 25.856C24.9706 27.136 25.2866 28.268 25.9186 29.252C26.5586 30.228 27.4226 30.996 28.5106 31.556C29.6066 32.108 30.8306 32.384 32.1826 32.384ZM32.1826 29.24C31.5586 29.24 30.9906 29.096 30.4786 28.808C29.9746 28.52 29.5746 28.124 29.2786 27.62C28.9826 27.108 28.8346 26.52 28.8346 25.856C28.8346 25.192 28.9826 24.608 29.2786 24.104C29.5746 23.592 29.9746 23.192 30.4786 22.904C30.9906 22.616 31.5586 22.472 32.1826 22.472C32.8146 22.472 33.3826 22.616 33.8866 22.904C34.3986 23.192 34.8026 23.592 35.0986 24.104C35.4026 24.608 35.5546 25.192 35.5546 25.856C35.5546 26.52 35.4026 27.108 35.0986 27.62C34.8026 28.124 34.3986 28.52 33.8866 28.808C33.3826 29.096 32.8146 29.24 32.1826 29.24Z" fill="white"/>
<path d="M9.668 32H16.784C18.752 32 20.312 31.508 21.464 30.524C22.616 29.54 23.192 28.18 23.192 26.444C23.192 25.076 22.82 23.972 22.076 23.132C21.34 22.292 20.28 21.76 18.896 21.536C20.592 20.688 21.44 19.236 21.44 17.18C21.44 15.524 20.9 14.28 19.82 13.448C18.748 12.616 17.256 12.2 15.344 12.2H9.668V32ZM13.544 20.216V15.212H14.444C16.612 15.212 17.696 16.036 17.696 17.684C17.696 18.508 17.416 19.136 16.856 19.568C16.296 20 15.492 20.216 14.444 20.216H13.544ZM13.544 28.976V23.564H15.464C16.648 23.564 17.552 23.804 18.176 24.284C18.808 24.764 19.124 25.444 19.124 26.324C19.124 28.092 17.904 28.976 15.464 28.976H13.544ZM32.1826 32.384C33.5426 32.384 34.7666 32.108 35.8546 31.556C36.9426 30.996 37.8026 30.228 38.4346 29.252C39.0746 28.268 39.3946 27.136 39.3946 25.856C39.3946 24.576 39.0746 23.448 38.4346 22.472C37.8026 21.488 36.9426 20.72 35.8546 20.168C34.7666 19.608 33.5426 19.328 32.1826 19.328C30.8306 19.328 29.6066 19.608 28.5106 20.168C27.4226 20.72 26.5586 21.488 25.9186 22.472C25.2866 23.448 24.9706 24.576 24.9706 25.856C24.9706 27.136 25.2866 28.268 25.9186 29.252C26.5586 30.228 27.4226 30.996 28.5106 31.556C29.6066 32.108 30.8306 32.384 32.1826 32.384ZM32.1826 29.24C31.5586 29.24 30.9906 29.096 30.4786 28.808C29.9746 28.52 29.5746 28.124 29.2786 27.62C28.9826 27.108 28.8346 26.52 28.8346 25.856C28.8346 25.192 28.9826 24.608 29.2786 24.104C29.5746 23.592 29.9746 23.192 30.4786 22.904C30.9906 22.616 31.5586 22.472 32.1826 22.472C32.8146 22.472 33.3826 22.616 33.8866 22.904C34.3986 23.192 34.8026 23.592 35.0986 24.104C35.4026 24.608 35.5546 25.192 35.5546 25.856C35.5546 26.52 35.4026 27.108 35.0986 27.62C34.8026 28.124 34.3986 28.52 33.8866 28.808C33.3826 29.096 32.8146 29.24 32.1826 29.24Z" fill="white"/>
</svg>
