<svg width="13" height="13" viewBox="0 0 13 13" fill="none" xmlns="http://www.w3.org/2000/svg">
<path d="M13 0H0V13H13V0Z" fill="#0084B1"/>
<path d="M3.05952 1.9744C3.65494 1.97489 4.146 2.46667 4.14472 3.06505C4.14329 3.69161 3.62333 4.16386 3.05219 4.15025C2.47289 4.16197 1.9638 3.67812 1.96391 3.06091C1.96391 2.4623 2.45689 1.97395 3.05952 1.9744Z" fill="white"/>
<path d="M3.6921 11.0243H2.4164C2.25084 11.0243 2.11663 10.8901 2.11663 10.7245V5.28238C2.11663 5.11681 2.25084 4.9826 2.4164 4.9826H3.6921C3.85766 4.9826 3.99187 5.11681 3.99187 5.28238V10.7246C3.99185 10.8901 3.85766 11.0243 3.6921 11.0243Z" fill="white"/>
<path d="M11.0361 6.89413C11.0361 5.75322 10.1112 4.8283 8.97029 4.8283H8.6431C8.0189 4.8283 7.46745 5.13974 7.13575 5.61578C7.09958 5.66767 7.06609 5.72155 7.03534 5.77718C7.0247 5.77558 7.0184 5.77475 7.01825 5.77504V5.10702C7.01825 5.03831 6.96254 4.98257 6.8938 4.98257H5.30221C5.23349 4.98257 5.17775 5.03828 5.17775 5.10702V10.8999C5.17775 10.9686 5.23344 11.0243 5.30215 11.0244L6.92843 11.0248C6.99717 11.0248 7.05291 10.9691 7.05291 10.9003V7.55361C7.05291 6.97511 7.51431 6.49477 8.09278 6.48823C8.38808 6.4849 8.65579 6.60322 8.84874 6.79628C9.03915 6.98658 9.15688 7.2497 9.15688 7.5402V10.9007C9.15688 10.9695 9.21259 11.0252 9.28128 11.0252L10.9116 11.0256C10.9803 11.0256 11.0361 10.9699 11.0361 10.9011V6.89413H11.0361Z" fill="white"/>
</svg>
