<svg width="213" height="213" viewBox="0 0 213 213" fill="none" xmlns="http://www.w3.org/2000/svg">
<path d="M49.68 135V82.392L47.76 72.792L49.68 67.032H82.32C89.552 67.032 95.344 68.376 99.696 71.064C104.048 73.752 106.224 78.104 106.224 84.12C106.224 87.128 105.712 89.848 104.688 92.28C103.664 94.712 102.192 96.6 100.272 97.944C104.624 99.352 107.824 101.496 109.872 104.376C111.92 107.256 112.944 110.68 112.944 114.648C112.944 121.624 110.896 126.776 106.8 130.104C102.768 133.368 96.848 135 89.04 135H49.68ZM66.96 93.432H82.128C84.304 93.432 85.872 92.92 86.832 91.896C87.792 90.872 88.272 89.528 88.272 87.864C88.272 85.752 87.568 84.312 86.16 83.544C84.752 82.776 83.088 82.392 81.168 82.392H66.96V93.432ZM66.96 119.64H86.16C88.464 119.64 90.16 119.352 91.248 118.776C92.4 118.2 93.136 117.464 93.456 116.568C93.84 115.672 94.032 114.744 94.032 113.784C94.032 112.12 93.424 110.712 92.208 109.56C91.056 108.344 89.36 107.736 87.12 107.736H66.96V119.64ZM142.757 135.96C134.949 135.96 128.901 134.104 124.613 130.392C120.325 126.68 118.181 120.664 118.181 112.344C118.181 103.96 120.325 97.944 124.613 94.296C128.901 90.584 134.949 88.728 142.757 88.728C150.757 88.728 156.805 90.584 160.901 94.296C165.061 97.944 167.141 103.96 167.141 112.344C167.141 120.664 165.061 126.68 160.901 130.392C156.805 134.104 150.757 135.96 142.757 135.96ZM142.757 123.48C145.381 123.48 147.205 122.52 148.229 120.6C149.253 118.616 149.765 115.864 149.765 112.344C149.765 108.76 149.253 106.008 148.229 104.088C147.205 102.168 145.381 101.208 142.757 101.208C140.069 101.208 138.181 102.168 137.093 104.088C136.069 106.008 135.557 108.76 135.557 112.344C135.557 115.864 136.069 118.616 137.093 120.6C138.181 122.52 140.069 123.48 142.757 123.48Z" fill="url(#paint0_linear)"/>
<path fill-rule="evenodd" clip-rule="evenodd" d="M213 10C213 4.47715 208.523 0 203 0H10C4.47715 0 0 4.47716 0 10V203C0 208.523 4.47716 213 10 213H203C208.523 213 213 208.523 213 203V10ZM201 22C201 16.4772 196.523 12 191 12H22C16.4772 12 12 16.4771 12 22V191C12 196.523 16.4771 201 22 201H191C196.523 201 201 196.523 201 191V22Z" fill="url(#paint1_linear)"/>
<defs>
<linearGradient id="paint0_linear" x1="106" y1="39" x2="106" y2="158" gradientUnits="userSpaceOnUse">
<stop stop-color="white"/>
<stop offset="0.494792" stop-color="#707070"/>
<stop offset="1" stop-color="white" stop-opacity="0"/>
</linearGradient>
<linearGradient id="paint1_linear" x1="106.5" y1="0" x2="106.5" y2="213" gradientUnits="userSpaceOnUse">
<stop stop-color="#C5C4C4"/>
<stop offset="0.541667" stop-color="#B1B1B1" stop-opacity="0.46875"/>
<stop offset="1" stop-color="#DCDCDC" stop-opacity="0.85"/>
</linearGradient>
</defs>
</svg>
